<svg xmlns="http://www.w3.org/2000/svg" overflow="visible" viewBox="0 0 1042.51 1042.51">
  <defs/>
  <style>.st0 {
    fill: #8B0000
  }</style>
  <path d="M997.51 0H45C20.15 0 0 20.15 0 45v952.51c0 24.85 20.15 45 45 45h952.51c24.85 0 45-20.15 45-45V45c0-24.85-20.15-45-45-45zm-65 952.51H110c-11.05 0-20-8.95-20-20V110c0-11.05 8.95-20 20-20h822.51c11.05 0 20 8.95 20 20v822.51c0 11.04-8.96 20-20 20z"
        class="st0"/>
  <path d="M204.17 838.34c15.62 15.62 36.1 23.43 56.57 23.43s40.95-7.81 56.57-23.43l203.95-203.95L725.2 838.34c15.62 15.62 36.09 23.43 56.57 23.43s40.95-7.81 56.57-23.43c31.24-31.24 31.24-81.89 0-113.14L634.39 521.25 838.34 317.3c31.24-31.24 31.24-81.89 0-113.14s-81.89-31.24-113.14 0L521.25 408.12 317.31 204.17c-31.24-31.24-81.9-31.24-113.14 0-31.24 31.24-31.24 81.9 0 113.14l203.95 203.95L204.17 725.2c-31.24 31.24-31.24 81.9 0 113.14z"
        class="st0"/>
</svg>
